<svg width="119" height="43" viewBox="0 0 119 43" fill="none" xmlns="http://www.w3.org/2000/svg">
<path d="M30.9283 36.8712C29.1991 39.4545 27.3658 41.9753 24.5741 42.017C21.7825 42.0795 20.8866 40.3712 17.72 40.3712C14.5325 40.3712 13.5533 41.9753 10.9075 42.0795C8.17831 42.1837 6.11581 39.3295 4.36581 36.8087C0.803313 31.6628 -1.92585 22.1837 1.74081 15.8087C3.55331 12.642 6.80331 10.642 10.3241 10.5795C12.9908 10.5378 15.5325 12.392 17.1783 12.392C18.8033 12.392 21.8866 10.1628 25.1158 10.4962C26.47 10.5587 30.2616 11.0378 32.6992 14.6212C32.5117 14.7462 28.1783 17.2878 28.22 22.5587C28.2825 28.8503 33.7408 30.9545 33.8033 30.9753C33.7408 31.1212 32.9283 33.9753 30.9283 36.8712ZM19.0325 3.53784C20.5533 1.80868 23.0741 0.496175 25.1575 0.412842C25.4283 2.85034 24.4491 5.30868 22.9908 7.05867C21.5533 8.82951 19.1783 10.2045 16.845 10.017C16.5325 7.62118 17.6991 5.12117 19.0325 3.53784Z" fill="black"/>
<path d="M36.8113 32.7476V10.3476H46.0273C48.0113 10.3476 49.7073 10.6676 51.1153 11.3076C52.5447 11.9476 53.6433 12.8649 54.4113 14.0596C55.1793 15.2542 55.5633 16.6729 55.5633 18.3156C55.5633 19.9582 55.1793 21.3769 54.4113 22.5716C53.6433 23.7662 52.5447 24.6836 51.1153 25.3236C49.7073 25.9636 48.0113 26.2836 46.0273 26.2836H39.1153L40.9713 24.3316V32.7476H36.8113ZM40.9713 24.7796L39.1153 22.7636H45.8353C47.67 22.7636 49.046 22.3796 49.9633 21.6116C50.902 20.8222 51.3713 19.7236 51.3713 18.3156C51.3713 16.8862 50.902 15.7876 49.9633 15.0196C49.046 14.2516 47.67 13.8676 45.8353 13.8676H39.1153L40.9713 11.8196V24.7796ZM69.7053 32.7476V29.2916L69.4813 28.5556V22.5076C69.4813 21.3342 69.1293 20.4276 68.4253 19.7876C67.7213 19.1262 66.6547 18.7956 65.2253 18.7956C64.2653 18.7956 63.316 18.9449 62.3773 19.2436C61.46 19.5422 60.6813 19.9582 60.0413 20.4916L58.4733 17.5796C59.3907 16.8756 60.4787 16.3529 61.7373 16.0116C63.0173 15.6489 64.34 15.4676 65.7053 15.4676C68.18 15.4676 70.0893 16.0649 71.4333 17.2596C72.7987 18.4329 73.4813 20.2569 73.4813 22.7316V32.7476H69.7053ZM64.3293 32.9716C63.0493 32.9716 61.9293 32.7582 60.9693 32.3316C60.0093 31.8836 59.2627 31.2756 58.7293 30.5076C58.2173 29.7182 57.9613 28.8329 57.9613 27.8516C57.9613 26.8916 58.1853 26.0276 58.6333 25.2596C59.1027 24.4916 59.86 23.8836 60.9053 23.4356C61.9507 22.9876 63.3373 22.7636 65.0653 22.7636H70.0253V25.4196H65.3533C63.988 25.4196 63.0707 25.6436 62.6013 26.0916C62.132 26.5182 61.8973 27.0516 61.8973 27.6916C61.8973 28.4169 62.1853 28.9929 62.7613 29.4196C63.3373 29.8462 64.1373 30.0596 65.1613 30.0596C66.1427 30.0596 67.0173 29.8356 67.7853 29.3876C68.5747 28.9396 69.14 28.2782 69.4813 27.4036L70.1533 29.8036C69.7693 30.8062 69.076 31.5849 68.0733 32.1396C67.092 32.6942 65.844 32.9716 64.3293 32.9716ZM79.7103 39.1796C78.8783 39.1796 78.0463 39.0409 77.2143 38.7636C76.3823 38.4862 75.689 38.1022 75.1343 37.6116L76.7343 34.6676C77.1397 35.0302 77.5983 35.3182 78.1103 35.5316C78.6223 35.7449 79.145 35.8516 79.6783 35.8516C80.4037 35.8516 80.9903 35.6702 81.4383 35.3076C81.8863 34.9449 82.3023 34.3369 82.6863 33.4836L83.6783 31.2436L83.9983 30.7636L90.4623 15.6596H94.3023L86.3023 34.1236C85.769 35.4036 85.1717 36.4169 84.5103 37.1636C83.8703 37.9102 83.145 38.4329 82.3343 38.7316C81.545 39.0302 80.6703 39.1796 79.7103 39.1796ZM83.2303 33.3556L75.5183 15.6596H79.6783L85.9503 30.4116L83.2303 33.3556Z" fill="black"/>
</svg>
