<svg width="20" height="20" viewBox="0 0 20 20" fill="none" xmlns="http://www.w3.org/2000/svg">
<path d="M14.1666 15.0001C13.2416 15.0001 12.4999 15.7417 12.4999 16.6667C12.4999 17.1088 12.6755 17.5327 12.9881 17.8453C13.3006 18.1578 13.7246 18.3334 14.1666 18.3334C14.6086 18.3334 15.0325 18.1578 15.3451 17.8453C15.6577 17.5327 15.8333 17.1088 15.8333 16.6667C15.8333 15.7417 15.0833 15.0001 14.1666 15.0001ZM0.833252 1.66675V3.33341H2.49992L5.49992 9.65841L4.36659 11.7001C4.24159 11.9334 4.16659 12.2084 4.16659 12.5001C4.16659 12.9421 4.34218 13.366 4.65474 13.6786C4.9673 13.9912 5.39122 14.1667 5.83325 14.1667H15.8333V12.5001H6.18325C6.128 12.5001 6.07501 12.4781 6.03594 12.4391C5.99687 12.4 5.97492 12.347 5.97492 12.2917C5.97492 12.2501 5.98325 12.2167 5.99992 12.1917L6.74992 10.8334H12.9583C13.5833 10.8334 14.1333 10.4834 14.4166 9.97508L17.3999 4.58341C17.4583 4.45008 17.4999 4.30841 17.4999 4.16675C17.4999 3.94573 17.4121 3.73377 17.2558 3.57749C17.0996 3.42121 16.8876 3.33341 16.6666 3.33341H4.34159L3.55825 1.66675M5.83325 15.0001C4.90825 15.0001 4.16659 15.7417 4.16659 16.6667C4.16659 17.1088 4.34218 17.5327 4.65474 17.8453C4.9673 18.1578 5.39122 18.3334 5.83325 18.3334C6.27528 18.3334 6.6992 18.1578 7.01176 17.8453C7.32432 17.5327 7.49992 17.1088 7.49992 16.6667C7.49992 15.7417 6.74992 15.0001 5.83325 15.0001Z" fill="black"/>
</svg>
