<svg width="56" height="46" viewBox="0 0 56 46" fill="none" xmlns="http://www.w3.org/2000/svg">
<path d="M50.5 10.2476V5.24756H15.5V10.2476H50.5ZM50.5 30.2476V17.7476H15.5V30.2476H50.5ZM50.5 0.247559C51.8261 0.247559 53.0978 0.774343 54.0355 1.71202C54.9732 2.64971 55.5 3.92148 55.5 5.24756V30.2476C55.5 31.5736 54.9732 32.8454 54.0355 33.7831C53.0978 34.7208 51.8261 35.2476 50.5 35.2476H15.5C12.725 35.2476 10.5 32.9976 10.5 30.2476V5.24756C10.5 2.47256 12.725 0.247559 15.5 0.247559H50.5ZM5.5 40.2476H43V45.2476H5.5C4.17392 45.2476 2.90215 44.7208 1.96447 43.7831C1.02678 42.8454 0.5 41.5736 0.5 40.2476V12.7476H5.5V40.2476Z" fill="black"/>
</svg>
