<svg width="30" height="30" viewBox="0 0 30 30" fill="none" xmlns="http://www.w3.org/2000/svg">
<path d="M24 23.5472C22.335 23.5472 21 24.857 21 26.4906C21 27.2712 21.3161 28.0199 21.8787 28.5719C22.4413 29.1239 23.2044 29.434 24 29.434C24.7956 29.434 25.5587 29.1239 26.1213 28.5719C26.6839 28.0199 27 27.2712 27 26.4906C27 24.857 25.65 23.5472 24 23.5472ZM0 0V2.9434H3L8.4 14.1136L6.36 17.7192C6.135 18.1313 6 18.617 6 19.1321C6 19.9127 6.31607 20.6614 6.87868 21.2134C7.44129 21.7654 8.20435 22.0755 9 22.0755H27V19.1321H9.63C9.53054 19.1321 9.43516 19.0933 9.36483 19.0243C9.29451 18.9553 9.255 18.8617 9.255 18.7642C9.255 18.6906 9.27 18.6317 9.3 18.5875L10.65 16.1887H21.825C22.95 16.1887 23.94 15.5706 24.45 14.6728L29.82 5.15094C29.925 4.91547 30 4.66528 30 4.41509C30 4.02478 29.842 3.65044 29.5607 3.37445C29.2794 3.09845 28.8978 2.9434 28.5 2.9434H6.315L4.905 0M9 23.5472C7.335 23.5472 6 24.857 6 26.4906C6 27.2712 6.31607 28.0199 6.87868 28.5719C7.44129 29.1239 8.20435 29.434 9 29.434C9.79565 29.434 10.5587 29.1239 11.1213 28.5719C11.6839 28.0199 12 27.2712 12 26.4906C12 24.857 10.65 23.5472 9 23.5472Z" fill="white"/>
</svg>
