<svg width="266" height="76" viewBox="0 0 266 76" fill="none" xmlns="http://www.w3.org/2000/svg">
<g filter="url(#filter0_d_1228_1604)">
<path fill-rule="evenodd" clip-rule="evenodd" d="M37.665 68.3077C55.4293 68.3077 69.83 53.912 69.83 36.1538C69.83 18.3957 55.4293 4 37.665 4C19.9007 4 5.5 18.3957 5.5 36.1538C5.5 53.912 19.9007 68.3077 37.665 68.3077Z" fill="white"/>
<path d="M62.9376 36.1538C62.9376 50.1086 51.6228 61.4175 37.6651 61.4175C23.7073 61.4175 12.3926 50.1086 12.3926 36.1538C12.3926 22.199 23.7073 10.8901 37.6651 10.8901C51.6228 10.8901 62.9376 22.199 62.9376 36.1538Z" stroke="black" stroke-width="3"/>
</g>
<path d="M31.2 21H43.8C48.6 21 52.5 24.9 52.5 29.7V42.3C52.5 44.6074 51.5834 46.8203 49.9518 48.4518C48.3203 50.0834 46.1074 51 43.8 51H31.2C26.4 51 22.5 47.1 22.5 42.3V29.7C22.5 27.3926 23.4166 25.1797 25.0482 23.5482C26.6797 21.9166 28.8926 21 31.2 21ZM30.9 24C29.4678 24 28.0943 24.5689 27.0816 25.5816C26.0689 26.5943 25.5 27.9678 25.5 29.4V42.6C25.5 45.585 27.915 48 30.9 48H44.1C45.5322 48 46.9057 47.4311 47.9184 46.4184C48.9311 45.4057 49.5 44.0322 49.5 42.6V29.4C49.5 26.415 47.085 24 44.1 24H30.9ZM45.375 26.25C45.8723 26.25 46.3492 26.4475 46.7008 26.7992C47.0525 27.1508 47.25 27.6277 47.25 28.125C47.25 28.6223 47.0525 29.0992 46.7008 29.4508C46.3492 29.8025 45.8723 30 45.375 30C44.8777 30 44.4008 29.8025 44.0492 29.4508C43.6975 29.0992 43.5 28.6223 43.5 28.125C43.5 27.6277 43.6975 27.1508 44.0492 26.7992C44.4008 26.4475 44.8777 26.25 45.375 26.25ZM37.5 28.5C39.4891 28.5 41.3968 29.2902 42.8033 30.6967C44.2098 32.1032 45 34.0109 45 36C45 37.9891 44.2098 39.8968 42.8033 41.3033C41.3968 42.7098 39.4891 43.5 37.5 43.5C35.5109 43.5 33.6032 42.7098 32.1967 41.3033C30.7902 39.8968 30 37.9891 30 36C30 34.0109 30.7902 32.1032 32.1967 30.6967C33.6032 29.2902 35.5109 28.5 37.5 28.5ZM37.5 31.5C36.3065 31.5 35.1619 31.9741 34.318 32.818C33.4741 33.6619 33 34.8065 33 36C33 37.1935 33.4741 38.3381 34.318 39.182C35.1619 40.0259 36.3065 40.5 37.5 40.5C38.6935 40.5 39.8381 40.0259 40.682 39.182C41.5259 38.3381 42 37.1935 42 36C42 34.8065 41.5259 33.6619 40.682 32.818C39.8381 31.9741 38.6935 31.5 37.5 31.5Z" fill="black"/>
<g filter="url(#filter1_d_1228_1604)">
<path fill-rule="evenodd" clip-rule="evenodd" d="M129.995 68.3077C147.759 68.3077 162.16 53.912 162.16 36.1538C162.16 18.3957 147.759 4 129.995 4C112.231 4 97.8301 18.3957 97.8301 36.1538C97.8301 53.912 112.231 68.3077 129.995 68.3077Z" fill="white"/>
<path d="M155.268 36.1538C155.268 50.1086 143.953 61.4176 129.995 61.4176C116.037 61.4176 104.723 50.1086 104.723 36.1538C104.723 22.1991 116.037 10.8901 129.995 10.8901C143.953 10.8901 155.268 22.1991 155.268 36.1538Z" stroke="black" stroke-width="3"/>
</g>
<path d="M129.929 19.3999C120.763 19.3999 113.263 26.8832 113.263 36.0999C113.263 44.4332 119.363 51.3499 127.329 52.5999V40.9332H123.096V36.0999H127.329V32.4166C127.329 28.2332 129.813 25.9332 133.629 25.9332C135.446 25.9332 137.346 26.2499 137.346 26.2499V30.3666H135.246C133.179 30.3666 132.529 31.6499 132.529 32.9666V36.0999H137.163L136.413 40.9332H132.529V52.5999C136.457 51.9796 140.033 49.9758 142.613 46.95C145.192 43.9242 146.605 40.076 146.596 36.0999C146.596 26.8832 139.096 19.3999 129.929 19.3999Z" fill="black"/>
<g filter="url(#filter2_d_1228_1604)">
<path fill-rule="evenodd" clip-rule="evenodd" d="M222.325 68.3077C240.089 68.3077 254.49 53.912 254.49 36.1538C254.49 18.3957 240.089 4 222.325 4C204.561 4 190.16 18.3957 190.16 36.1538C190.16 53.912 204.561 68.3077 222.325 68.3077Z" fill="white"/>
<path d="M247.597 36.1538C247.597 50.1086 236.283 61.4176 222.325 61.4176C208.367 61.4176 197.052 50.1086 197.052 36.1538C197.052 22.1991 208.367 10.8901 222.325 10.8901C236.283 10.8901 247.597 22.1991 247.597 36.1538Z" fill="white" stroke="black" stroke-width="3"/>
</g>
<path d="M239.115 27.7499C237.992 28.2603 236.781 28.5958 235.527 28.7562C236.81 27.9833 237.802 26.7583 238.269 25.2853C237.058 26.0145 235.717 26.5249 234.302 26.8166C233.15 25.5624 231.531 24.8333 229.694 24.8333C226.267 24.8333 223.467 27.6333 223.467 31.0895C223.467 31.5853 223.525 32.0666 223.627 32.5187C218.435 32.2562 213.812 29.7624 210.735 25.9853C210.196 26.9041 209.89 27.9833 209.89 29.1208C209.89 31.2937 210.983 33.2187 212.675 34.3124C211.64 34.3124 210.677 34.0208 209.831 33.5833C209.831 33.5833 209.831 33.5833 209.831 33.627C209.831 36.6603 211.99 39.1978 214.848 39.7666C214.323 39.9124 213.769 39.9853 213.2 39.9853C212.806 39.9853 212.412 39.9416 212.033 39.8687C212.821 42.3333 215.11 44.1708 217.867 44.2145C215.737 45.9062 213.04 46.8978 210.094 46.8978C209.598 46.8978 209.102 46.8687 208.606 46.8103C211.377 48.5895 214.673 49.6249 218.202 49.6249C229.694 49.6249 236.008 40.0874 236.008 31.8187C236.008 31.5416 236.008 31.2791 235.994 31.002C237.219 30.127 238.269 29.0187 239.115 27.7499Z" fill="black"/>
<defs>
<filter id="filter0_d_1228_1604" x="5.5" y="4" width="67.3301" height="68.3077" filterUnits="userSpaceOnUse" color-interpolation-filters="sRGB">
<feFlood flood-opacity="0" result="BackgroundImageFix"/>
<feColorMatrix in="SourceAlpha" type="matrix" values="0 0 0 0 0 0 0 0 0 0 0 0 0 0 0 0 0 0 127 0" result="hardAlpha"/>
<feOffset dx="3" dy="4"/>
<feColorMatrix type="matrix" values="0 0 0 0 0 0 0 0 0 0 0 0 0 0 0 0 0 0 0.2 0"/>
<feBlend mode="normal" in2="BackgroundImageFix" result="effect1_dropShadow_1228_1604"/>
<feBlend mode="normal" in="SourceGraphic" in2="effect1_dropShadow_1228_1604" result="shape"/>
</filter>
<filter id="filter1_d_1228_1604" x="97.8301" y="4" width="67.3301" height="68.3077" filterUnits="userSpaceOnUse" color-interpolation-filters="sRGB">
<feFlood flood-opacity="0" result="BackgroundImageFix"/>
<feColorMatrix in="SourceAlpha" type="matrix" values="0 0 0 0 0 0 0 0 0 0 0 0 0 0 0 0 0 0 127 0" result="hardAlpha"/>
<feOffset dx="3" dy="4"/>
<feColorMatrix type="matrix" values="0 0 0 0 0 0 0 0 0 0 0 0 0 0 0 0 0 0 0.2 0"/>
<feBlend mode="normal" in2="BackgroundImageFix" result="effect1_dropShadow_1228_1604"/>
<feBlend mode="normal" in="SourceGraphic" in2="effect1_dropShadow_1228_1604" result="shape"/>
</filter>
<filter id="filter2_d_1228_1604" x="190.16" y="4" width="67.3301" height="68.3077" filterUnits="userSpaceOnUse" color-interpolation-filters="sRGB">
<feFlood flood-opacity="0" result="BackgroundImageFix"/>
<feColorMatrix in="SourceAlpha" type="matrix" values="0 0 0 0 0 0 0 0 0 0 0 0 0 0 0 0 0 0 127 0" result="hardAlpha"/>
<feOffset dx="3" dy="4"/>
<feColorMatrix type="matrix" values="0 0 0 0 0 0 0 0 0 0 0 0 0 0 0 0 0 0 0.2 0"/>
<feBlend mode="normal" in2="BackgroundImageFix" result="effect1_dropShadow_1228_1604"/>
<feBlend mode="normal" in="SourceGraphic" in2="effect1_dropShadow_1228_1604" result="shape"/>
</filter>
</defs>
</svg>
